<svg width="106" height="22" viewBox="0 0 106 22" fill="none" xmlns="http://www.w3.org/2000/svg">
<g clip-path="url(#clip0_4182_1581)">
<path fill-rule="evenodd" clip-rule="evenodd" d="M12.0001 16.1029C12.1081 16.1658 12.2246 16.2288 12.341 16.2844C13.2083 16.6937 13.611 16.9626 13.611 17.5296C13.611 18.137 13.1231 18.6337 12.5265 18.6337C12.0619 18.6337 11.6748 18.3343 11.5199 17.9164C11.2326 18.216 10.8892 18.4541 10.5101 18.6165C10.131 18.7789 9.72375 18.8625 9.31241 18.8622C8.90566 18.8622 8.50288 18.7807 8.1271 18.6222C7.75131 18.4637 7.40987 18.2314 7.12229 17.9386C6.83469 17.6458 6.60657 17.2981 6.45097 16.9155C6.29536 16.5329 6.21532 16.1229 6.21539 15.7088C6.21539 15.5432 6.23821 15.3776 6.26161 15.212C4.67348 14.7391 3.45029 13.3912 3.17119 11.7035C3.13278 11.4591 3.10938 11.2147 3.10938 10.9624C3.10938 10.71 3.13278 10.4656 3.17119 10.2212C3.45809 8.54212 4.67348 7.18566 6.26161 6.71273L6.25861 6.69195C6.2364 6.53431 6.21479 6.38217 6.21479 6.21598C6.21471 5.80183 6.29478 5.39172 6.45042 5.00909C6.60608 4.62646 6.83424 4.27879 7.12189 3.98595C7.40955 3.69311 7.75106 3.46083 8.12691 3.30238C8.50276 3.14393 8.90561 3.06242 9.31241 3.0625C10.1725 3.0625 10.9545 3.42545 11.5199 4.00836C11.5958 3.79851 11.7328 3.61731 11.9128 3.48908C12.0927 3.36085 12.3068 3.29174 12.5265 3.29102C13.1231 3.29102 13.611 3.78778 13.611 4.39513C13.611 5.00981 13.2083 5.27806 12.341 5.68804C12.2557 5.72942 12.1716 5.77345 12.0889 5.82004L12.0001 5.86891C11.9305 5.90862 11.8608 5.94834 11.7984 5.98745C11.7444 6.01923 11.6982 6.05038 11.6514 6.08217C11.6367 6.0902 11.6226 6.0994 11.6094 6.10965C11.5957 6.11998 11.5813 6.12917 11.5661 6.13716C11.3033 6.31068 11.0632 6.51598 10.8303 6.72862C10.8231 6.73279 10.8166 6.73817 10.8111 6.7445C10.8051 6.75061 10.7991 6.75673 10.7919 6.7604C10.6989 6.85449 10.6058 6.9498 10.5206 7.0439L10.4858 7.08361C10.4744 7.09707 10.463 7.11112 10.451 7.12272C10.4144 7.16889 10.3772 7.21451 10.3394 7.2596C10.2811 7.32926 10.2241 7.39829 10.1725 7.46979C9.42139 8.48292 9.01363 9.71689 9.01052 10.9862C9.00999 12.2561 9.41813 13.4912 10.1725 14.5026C10.2687 14.6381 10.3733 14.767 10.4858 14.8888C10.4978 14.9022 10.5092 14.9163 10.5206 14.9279C10.5848 15.0049 10.6527 15.0727 10.7217 15.1418L10.7919 15.212C10.7991 15.2162 10.8056 15.2216 10.8111 15.2279C10.8171 15.234 10.8231 15.2395 10.8303 15.2438C11.0599 15.4603 11.3059 15.6578 11.5661 15.8347C11.5818 15.8426 11.5956 15.853 11.6088 15.8621C11.6222 15.8726 11.6365 15.882 11.6514 15.8902L11.7252 15.9373L11.7984 15.9843L11.8993 16.0436C11.9323 16.0632 11.9653 16.0833 12.0001 16.1029ZM22.7646 6.7445C24.3527 7.21744 25.576 8.56535 25.855 10.253C25.9371 10.7594 25.9371 11.276 25.855 11.7824C25.5681 13.4614 24.3527 14.8179 22.7646 15.2908L22.7675 15.3116C22.7899 15.4693 22.8114 15.6214 22.8114 15.7876C22.8116 16.2018 22.7315 16.612 22.5758 16.9946C22.4201 17.3773 22.1919 17.725 21.9041 18.0178C21.6164 18.3107 21.2749 18.5429 20.8989 18.7014C20.523 18.8598 20.1201 18.9412 19.7132 18.9411C19.3021 18.9405 18.8952 18.8565 18.5163 18.6942C18.1374 18.5318 17.794 18.2942 17.5063 17.9952C17.4305 18.2051 17.2934 18.3863 17.1135 18.5145C16.9336 18.6427 16.7194 18.7118 16.4998 18.7125C16.2125 18.7117 15.9372 18.5952 15.734 18.3885C15.5308 18.1817 15.4162 17.9015 15.4152 17.6091C15.4152 16.9937 15.8179 16.7255 16.6852 16.3155C16.7711 16.2752 16.8533 16.23 16.9373 16.1835L17.0262 16.1347C17.0958 16.0949 17.1654 16.0552 17.2278 16.0161C17.2818 15.9843 17.328 15.9532 17.3749 15.9214C17.3896 15.9134 17.4036 15.9042 17.4169 15.8939C17.4305 15.8836 17.445 15.8744 17.4601 15.8664C17.7204 15.6894 17.9664 15.4916 18.1959 15.275C18.2032 15.2708 18.2097 15.2654 18.2151 15.2591C18.2211 15.253 18.2271 15.2475 18.2343 15.2438C18.3274 15.1491 18.4204 15.0544 18.5056 14.9597L18.5404 14.9206C18.5518 14.9065 18.5632 14.8925 18.5753 14.8808C18.6113 14.8344 18.6497 14.7892 18.6869 14.744C18.7451 14.6743 18.8021 14.6059 18.8537 14.5338C19.574 13.5562 20.0157 12.3341 20.0157 11.0174C20.0162 9.74766 19.6079 8.51278 18.8537 7.50155C18.7576 7.36592 18.6529 7.23673 18.5404 7.11479C18.5284 7.10133 18.517 7.08729 18.5056 7.07568C18.4212 6.97525 18.3305 6.88035 18.2343 6.79156C18.2271 6.78736 18.2206 6.78199 18.2151 6.77567C18.2096 6.76954 18.2031 6.76439 18.1959 6.7604C17.9644 6.54608 17.7185 6.34846 17.4601 6.16892C17.4452 6.16092 17.431 6.15172 17.4175 6.14143C17.4037 6.13165 17.3905 6.12188 17.3749 6.11393C17.3514 6.09805 17.3268 6.08217 17.301 6.06627C17.2764 6.05104 17.2519 6.03536 17.2278 6.01923L17.127 5.95996C16.9842 5.87182 16.837 5.79145 16.6858 5.71922C15.8257 5.30189 15.4152 5.03364 15.4152 4.4263C15.4152 3.81955 15.9032 3.32279 16.4998 3.32279C16.9643 3.32279 17.3514 3.62219 17.5063 4.04013C17.7937 3.74051 18.137 3.50246 18.5161 3.34002C18.8953 3.17757 19.3025 3.09402 19.7138 3.09427C20.1206 3.09427 20.5233 3.17585 20.8991 3.33433C21.2749 3.49281 21.6164 3.72511 21.904 4.01794C22.1916 4.31078 22.4197 4.65842 22.5753 5.041C22.7308 5.42361 22.8109 5.83366 22.8109 6.24774C22.8109 6.41273 22.7881 6.57892 22.7646 6.7445Z" fill="#FEFEFE"/>
<path d="M17.8934 10.9956C17.8937 10.5441 17.8065 10.097 17.6369 9.67987C17.4673 9.26273 17.2185 8.88371 16.9049 8.56451C16.5913 8.2453 16.219 7.99216 15.8092 7.81955C15.3994 7.64695 14.9602 7.55827 14.5167 7.55859C14.0733 7.55836 13.6341 7.6471 13.2243 7.81978C12.8146 7.99246 12.4423 8.24567 12.1287 8.56494C11.8152 8.8842 11.5665 9.26327 11.397 9.68043C11.2274 10.0976 11.1403 10.5447 11.1406 10.9962C11.1404 11.4476 11.2275 11.8946 11.3971 12.3118C11.5667 12.7289 11.8154 13.1078 12.1289 13.427C12.4425 13.7462 12.8148 13.9994 13.2245 14.172C13.6342 14.3447 14.0733 14.4334 14.5167 14.4332C14.9602 14.4335 15.3994 14.3448 15.8092 14.1722C16.219 13.9996 16.5913 13.7465 16.9049 13.4273C17.2185 13.1081 17.4673 12.729 17.6369 12.3119C17.8065 11.8947 17.8937 11.4477 17.8934 10.9962V10.9956Z" fill="#FEFEFE"/>
</g>
<path d="M96.1797 19.875V7.625H99.0547V9.375H99.1797C99.1797 9.375 100.43 7.375 102.68 7.375H103.18V10.5C103.18 10.5 102.805 10.375 102.18 10.375C100.43 10.375 99.0547 11.75 99.0547 13.875V19.875H96.1797Z" fill="#FEFEFE"/>
<path d="M88.9219 20.125C85.2969 20.125 82.4219 17.25 82.4219 13.75C82.4219 10.25 85.2969 7.375 88.7969 7.375C92.2969 7.375 94.7969 10.125 94.7969 13.5C94.7969 14.25 94.6719 14.875 94.6719 14.875H85.5469C85.8469 16.25 87.0469 17.5 89.0469 17.5C91.1719 17.5 92.4219 15.975 92.4219 15.975L94.0469 18C94.0469 18 92.4219 20.125 88.9219 20.125ZM85.5469 12.5H91.6719C91.2969 11.125 90.2969 10.125 88.6719 10.125C86.9219 10.125 85.9219 11.125 85.5469 12.5Z" fill="#FEFEFE"/>
<path d="M79.7812 20.125C77.4062 20.125 75.9062 18.625 75.9062 15.875V10.625H73.6562V7.875H74.9062C75.7813 7.875 76.1562 7.5 76.1562 6.5V4H78.7812V7.875H81.5312V10.625H78.7812V15.5C78.7812 16.75 79.4063 17.375 80.4062 17.375C81.1562 17.375 81.9062 17.025 81.9062 17.025V19.75C81.9062 19.75 81.0313 20.125 79.7812 20.125Z" fill="#FEFEFE"/>
<path d="M65.7812 19.875V7.625H68.6562V9.375H68.7812C68.7812 9.375 70.0312 7.375 72.2812 7.375H72.7812V10.5C72.7812 10.5 72.4063 10.375 71.7812 10.375C70.0313 10.375 68.6562 11.75 68.6562 13.875V19.875H65.7812Z" fill="#FEFEFE"/>
<path d="M57.8984 20.125C55.5234 20.125 53.8984 18.5 53.8984 16.625C53.8984 14.625 55.3984 13.125 57.5234 12.75L61.6484 12C61.6484 11.125 60.6484 10.125 59.2734 10.125C57.4484 10.125 56.2734 11.625 56.2734 11.625L54.5234 9.875C54.5234 9.875 56.2734 7.375 59.3984 7.375C62.3984 7.375 64.5234 9.575 64.5234 12.25V19.875H61.6484V18.25H61.5234C61.5234 18.25 60.3984 20.125 57.8984 20.125ZM58.6484 17.75C60.2734 17.75 61.6484 16.375 61.6484 14.625V14.25L58.7734 14.75C57.2734 15.025 56.7734 15.5 56.7734 16.25C56.7734 17 57.5234 17.75 58.6484 17.75Z" fill="#FEFEFE"/>
<path d="M50.2578 20.125C47.8828 20.125 46.3828 18.625 46.3828 15.875V10.625H44.1328V7.875H45.3828C46.2578 7.875 46.6328 7.5 46.6328 6.5V4H49.2578V7.875H52.0078V10.625H49.2578V15.5C49.2578 16.75 49.8828 17.375 50.8828 17.375C51.6328 17.375 52.3828 17.025 52.3828 17.025V19.75C52.3828 19.75 51.5078 20.125 50.2578 20.125Z" fill="#FEFEFE"/>
<path d="M37.5 20.25C33.125 20.25 31 17.5 31 17.5L33.125 15.375C33.125 15.375 34.625 17.375 37.5 17.375C39.5 17.375 40.625 16.25 40.625 15C40.625 11.5 31.625 13.375 31.625 7C31.625 4.375 34 2 37.75 2C41.5 2 43.375 4.375 43.375 4.375L41.25 6.5C41.25 6.5 40 4.875 37.75 4.875C35.875 4.875 34.875 5.875 34.875 7C34.875 10.5 43.875 8.625 43.875 15C43.875 17.75 41.375 20.25 37.5 20.25Z" fill="#FEFEFE"/>
<defs>
<clipPath id="clip0_4182_1581">
<rect width="23" height="16" fill="white" transform="translate(3 3)"/>
</clipPath>
</defs>
</svg>
